<svg xmlns="http://www.w3.org/2000/svg" width="800" height="1000" viewBox="0 0 800 1000">
  <defs>
    <linearGradient id="g3" x1="0" y1="0" x2="1" y2="1">
      <stop offset="0" stop-color="#3a2c6b"/>
      <stop offset="1" stop-color="#5a63c8"/>
    </linearGradient>
  </defs>
  <rect width="800" height="1000" fill="url(#g3)"/>
  <g stroke="#ffffff" stroke-opacity="0.16" stroke-width="2">
    <line x1="0" y1="500" x2="800" y2="500"/>
  </g>
  <g fill="#ffffff" fill-opacity="0.22">
    <circle cx="140" cy="300" r="26"/><circle cx="300" cy="220" r="18"/><circle cx="470" cy="320" r="30"/>
    <circle cx="640" cy="230" r="20"/><circle cx="220" cy="430" r="16"/><circle cx="560" cy="440" r="22"/>
    <circle cx="180" cy="700" r="24"/><circle cx="360" cy="780" r="18"/><circle cx="540" cy="700" r="28"/>
    <circle cx="680" cy="790" r="16"/><circle cx="300" cy="620" r="14"/><circle cx="620" cy="620" r="20"/>
  </g>
  <g fill="none" stroke="#ffffff" stroke-opacity="0.20" stroke-width="3">
    <path d="M140 300 L300 220 L470 320 L640 230"/>
    <path d="M180 700 L360 780 L540 700 L680 790"/>
  </g>
</svg>
